<svg version="1.0" xmlns="http://www.w3.org/2000/svg" xmlns:xlink="http://www.w3.org/1999/xlink" viewBox="0 0 39.855 49.429" color-interpolation-filters="sRGB"><g mask="url(#prefix__a)"><svg><path transform="translate(-6 -6)" fill="url(#prefix__b)" d="M0 0h51.855v61.429H0z"/></svg></g><defs><linearGradient x1="0" y1="1" x2="0" y2="0" id="prefix__b"><stop offset="0%" stop-color="#6e45e2"/><stop offset="100%" stop-color="#88d3ce"/></linearGradient><filter id="prefix__c" filterUnits="userSpaceOnUse"><feColorMatrix values="0 0 0 0 0.99609375 0 0 0 0 0.99609375 0 0 0 0 0.99609375 0 0 0 1 0"/></filter></defs><mask id="prefix__a"><svg filter="url(#prefix__c)" width="39.855" height="49.429"><svg xmlns="http://www.w3.org/2000/svg" viewBox="11.774 2.48 76.615 95.02"><switch><g><path d="M59.3 80.1c-3.8 0-7.7-.2-11.8-.4-6.6-.5-20.4-2.3-28.7-8.6-3.7 2.4-6.2 5.6-6.8 9.4-2.5 14.9 16.1 17 40 17 23.1 0 34.5-4.1 35.8-12.5.5-3.1-.8-6-3.7-8.6-5.8 2.5-14.1 3.7-24.8 3.7zM40.4 55.5c-5.1-.5-12-1.9-18.1-4.5-.6.6-1.2 1.3-1.7 2.1-8.3 11.3 8.3 18.7 27.4 20.1 19.1 1.4 42-.2 40.3-11.7-.9-6.3-4.7-9.8-10.3-12.2-7.7 6-22.2 6.7-28.6 6.7-3 0-6.1-.2-9-.5zm.7-6.3c16.7 1.6 38.5-1.7 35.3-11.4-.4-1.4-1.5-2.8-3-4.3-2.8.8-6.3 1.2-10.6 1.2-4.8 0-10.5-.4-18.1-1.5-1.6-.2-13-1.9-19.4-8.2-.2.1-.4.2-.7.4-22.3 12.5.7 22.3 16.5 23.8zm4.5-22.3c13.9 1.9 31.8 3.3 30.3-4.9-1.6-8.3-26.7-27-41.3-16.3-17.2 12.6.8 19.8 11 21.2z"/></g></switch></svg></svg></mask></svg>
